# xmcd
#
# Track frame offsets:
#	150
#	16646
#	34267
#	42954
#	52731
#	78415
#	86066
#	95970
#	113377
#	122759
#	135985
#	145327
#	159708
#	174305
#	189345
#	209352
#
# Disc length: 3011 seconds
#
# Revision: 0
# Processed by: cddbd v1.5.1PL0 Copyright (c) Steve Scherf et al.
# Submitted via: dBpowerAMP V4.0
#
DISCID=ca0bc110
DTITLE=Ted Estersohn - Root and Branch
DYEAR=2005
DGENRE=Blues 
TTITLE0=Louise
TTITLE1=Midnight Hour Blues
TTITLE2=4 Bucks-A Dance
TTITLE3=S.U.V. Blues
TTITLE4=Deep Elm Blues
TTITLE5=Theater of Pain
TTITLE6=Keep My Skillet Good and Greasy
TTITLE7=Temptation Rag
TTITLE8=Bulldog Blues
TTITLE9=The Dealer
TTITLE10=They Saw Me Comin'
TTITLE11=Blue Monk
TTITLE12=Prohibition Blues
TTITLE13=St James Infirmary
TTITLE14=Stolen Moments
TTITLE15=Pay Day/Thank You Uncle John
EXTD=Wave Chair Records\nCD 777
EXTT0=
EXTT1=
EXTT2=
EXTT3=
EXTT4=
EXTT5=
EXTT6=
EXTT7=
EXTT8=
EXTT9=
EXTT10=
EXTT11=
EXTT12=
EXTT13=
EXTT14=
EXTT15=
PLAYORDER=
